<?xml version="1.0" encoding="UTF-8"?>
<svg width="203px" height="34px" viewBox="0 0 203 34" version="1.1" xmlns="http://www.w3.org/2000/svg" xmlns:xlink="http://www.w3.org/1999/xlink">
    <!-- Generator: Sketch 52.5 (67469) - http://www.bohemiancoding.com/sketch -->
    <title>Group 8</title>
    <desc>Created with Sketch.</desc>
    <g id="Page-3" stroke="none" stroke-width="1" fill="none" fill-rule="evenodd">
        <g id="Animation-2-Copy" transform="translate(-120.000000, -20.000000)" fill="#000000">
            <g id="Group-8" transform="translate(120.000000, 20.000000)">
                <path d="M10.7524232,0.589550788 C10.4226727,0.263920399 10.5331503,0 10.999736,0 L21.3195796,0 C21.7861652,0 22.4310854,0.264471381 22.760275,0.590652752 L38.7542941,16.4286316 C39.0834837,16.754813 39.0818013,17.2815518 38.7498077,17.6049783 L22.5269822,33.4143061 C22.1949885,33.7377325 21.5478252,34 21.0812395,34 L11.0199248,34 C10.5538999,34 10.4428615,33.7360796 10.772612,33.4110002 L26.791867,17.5994685 C27.1216175,17.2738381 27.1216175,16.7459973 26.791867,16.4203669 L10.7524232,0.589550788 Z M0.189572164,7.83866596 C-0.134746339,7.53339056 -0.032676556,7.28571429 0.417308507,7.28571429 L10.5375823,7.28571429 C10.9875674,7.28571429 11.6153514,7.53339056 11.9396699,7.83866596 L18.4979278,14.0184769 C18.8222463,14.3237523 18.7201766,14.5714286 18.2701915,14.5714286 L8.15046644,14.5714286 C7.70048138,14.5714286 7.07269734,14.3237523 6.74837884,14.0184769 L0.189572164,7.83866596 Z M6.74832277,19.9820553 C7.07263857,19.6768041 7.7004174,19.4285714 8.15039872,19.4285714 L18.2700397,19.4285714 C18.7205698,19.4285714 18.82209,19.6768041 18.4977741,19.9820553 L11.9395707,26.1613778 C11.6152549,26.466629 10.9874761,26.7142857 10.5374948,26.7142857 L0.417305039,26.7142857 C-0.0326762845,26.7142857 -0.134745219,26.466629 0.189570589,26.1613778 L6.74832277,19.9820553 Z" id="Combined-Shape"></path>
                <path d="M56,29.023385 L56,6.97661501 C56,6.43662709 56.4427772,6 56.9881848,6 L71.060288,6 C74.9397196,6 78.0978057,9.1017911 78.0978057,12.9126182 C78.0978057,14.4910445 77.5103685,16.0115114 76.4566957,17.2373516 C76.4263953,17.2721272 76.4293276,17.3233246 76.4635377,17.3561682 C78.4653206,19.2804186 79.2580187,22.0083719 78.3939679,24.7363252 C77.3764602,27.9463071 74.1880737,30 70.7846519,30 L56.9881848,30 C56.4427772,30 56,29.5633729 56,29.023385 Z M70.8882598,24.9527068 C72.3798226,24.9527068 73.5468776,23.8543771 73.5468776,22.4527269 C73.5468776,21.2481385 72.8225997,19.9508151 71.2303613,19.9508151 L65.1253147,19.9508151 C64.6307336,19.9508151 64.2309635,19.5557255 64.2309635,19.067901 L64.2309635,15.9139465 C64.2309635,15.4270879 64.6307336,15.0310324 65.1253147,15.0310324 L70.8452527,15.0310324 C72.2674178,15.0310324 72.9047041,14.0312336 72.9047041,13.0401288 C72.9047041,11.9224794 71.9624587,11.0472932 70.7582612,11.0472932 L61.5019705,11.0472932 C61.4501665,11.0472932 61.4071595,11.0878648 61.4071595,11.1400282 L61.4071595,24.8590058 C61.4071595,24.9121352 61.4501665,24.9527068 61.5019705,24.9527068 L70.8882598,24.9527068 Z M172.138122,28.9635354 L172.138122,6.88287853 C172.138122,6.39507365 172.551858,6 173.063718,6 L176.896597,6 C177.407445,6 177.823204,6.39507365 177.823204,6.88287853 L177.823204,29.1161555 C177.823204,29.6029944 177.407445,30 176.896597,30 L173.222536,30 C172.62368,30 172.138122,29.534412 172.138122,28.9635354 Z M81.9889503,28.9635354 L81.9889503,6.88287853 C81.9889503,6.39507365 82.4026867,6 82.9145465,6 L86.7474253,6 C87.2582735,6 87.6740331,6.39507365 87.6740331,6.88287853 L87.6740331,29.1161555 C87.6740331,29.6029944 87.2582735,30 86.7474253,30 L83.0733647,30 C82.474509,30 81.9889503,29.534412 81.9889503,28.9635354 Z M110.097725,30 C109.836461,30 109.588999,29.8889112 109.416466,29.6957134 L90.5916183,8.43429261 C90.2988049,8.1512578 90.1104972,7.71946066 90.1104972,7.27317368 C90.1104972,6.64141678 90.5857029,6 91.4956921,6 L94.1359425,6 C94.8615677,6 95.4797294,6.58152546 95.5477568,6.64721272 L109.237031,22.1513383 L109.237031,6.88291407 C109.237031,6.39508956 109.642238,6 110.140119,6 L113.57205,6 C114.070918,6 114.475138,6.39508956 114.475138,6.88291407 L114.475138,29.1170859 C114.475138,29.6049104 114.070918,30 113.57205,30 L110.097725,30 Z M90.1528911,29.1170859 L90.1528911,10.6164621 L94.7846672,15.776776 C95.0676216,16.1226001 95.3476183,16.6423023 95.3476183,17.1455826 L95.3476183,29.1170859 C95.3476183,29.6049104 94.9443836,30 94.4455163,30 L91.055979,30 C90.5571117,30 90.1528911,29.6049104 90.1528911,29.1170859 Z M137.686296,29.4900398 L135.335024,24.61258 L125.765229,24.61258 C125.765229,24.61258 128.390685,19.6607509 128.390685,19.6935893 L132.935425,19.6935893 L129.327643,12.0750936 L120.758914,29.4987323 C120.608014,29.8039358 120.292407,30 119.94524,30 L115.864047,30 C115.437978,30 115.159849,29.5624774 115.346255,29.1867681 L126.609478,6.49450682 C126.760377,6.19123506 127.074998,6 127.419207,6 L131.259749,6 C131.604944,6 131.918579,6.19123506 132.070464,6.49450682 L143.649295,29.1587589 C143.846549,29.5421949 143.559544,29.9961367 143.120653,29.9961367 L138.501942,29.9961367 C138.151816,29.9961367 137.834236,29.7991066 137.686296,29.4900398 Z M162.515529,29.6145352 L155.436341,19.8960048 C155.326458,19.7427826 155.268113,19.5673961 155.270058,19.379482 C155.27103,18.9487252 155.275892,18.1132303 155.275892,17.4579402 C155.276865,16.945272 155.695976,16.5318611 156.212329,16.5318611 L158.739638,16.5318611 C160.312034,16.5318611 161.642299,15.2733186 161.642299,13.7825336 C161.642299,12.293676 160.312034,11.0341698 158.739638,11.0341698 L149.994701,11.0341698 C149.968446,11.0341698 149.947053,11.0553704 149.947053,11.0813893 L149.947053,29.0132102 C149.947053,29.5258783 149.527942,29.9421803 149.010617,29.9421803 L145.461298,29.9421803 C144.943973,29.9421803 144.524862,29.5258783 144.524862,29.0132102 L144.524862,6.92897009 C144.524862,6.41630195 144.943973,6 145.461298,6 L158.831045,6 C162.945337,6 166.600648,9.00566151 166.947801,13.0655692 C167.231746,16.3555109 165.427915,19.3447902 162.58457,20.7035535 C162.558315,20.7160811 162.549563,20.747882 162.568039,20.7719735 L168.715653,28.6817105 C169.134764,29.2203975 168.748715,30 168.063162,30 L163.274986,30 C162.973537,30 162.691536,29.8554507 162.515529,29.6145352 Z M180.701594,29.1170859 L180.701594,25.8375528 C180.701594,25.3497283 181.105951,24.9527068 181.605219,24.9527068 L195.44926,24.9527068 C196.710775,24.9527068 197.702389,23.9741598 197.746878,22.70968 C197.791367,21.4268464 196.629706,20.3748843 195.317769,20.3748843 L187.54996,20.3748843 C183.531105,20.3748843 180.259669,17.1417187 180.259669,13.1657074 C180.259669,9.21481183 183.531105,6 187.54996,6 L200.032633,6 C200.541787,6 200.954053,6.40281747 200.954053,6.90030187 L200.954053,10.1479573 C200.954053,10.6444757 200.541787,11.0472932 200.032633,11.0472932 L187.376947,11.0472932 C186.176728,11.0472932 185.338354,11.866452 185.338354,13.0401288 C185.338354,14.0196418 185.977021,15.0735359 187.376947,15.0735359 L195.094335,15.0735359 C198.975768,15.0735359 202.439991,17.7927953 202.935304,21.555323 C203.533436,26.1051318 199.904108,30 195.36127,30 L181.605219,30 C181.105951,30 180.701594,29.6049104 180.701594,29.1170859 Z" id="Combined-Shape"></path>
            </g>
        </g>
    </g>
</svg>